<svg width="20" height="18" viewBox="0 0 20 18" fill="none" xmlns="http://www.w3.org/2000/svg">
<path d="M1.12037 17.272C0.992371 17.016 0.832372 16.824 0.640371 16.696C0.448371 16.536 0.352371 16.392 0.352371 16.264C0.352371 16.136 0.336371 16.008 0.304371 15.88C0.304371 15.72 0.240372 15.576 0.112371 15.448C-0.0476286 15.256 -0.0316283 14.824 0.160372 14.152C0.352372 13.448 0.672371 12.6 1.12037 11.608C1.56837 10.584 2.09637 9.512 2.70437 8.392C2.96037 8.136 3.21637 7.8 3.47237 7.384C3.72837 6.968 3.92037 6.696 4.04837 6.568C4.04837 6.44 4.09637 6.328 4.19237 6.232C4.28837 6.104 4.40037 6.04 4.52837 6.04V5.752C4.52837 5.592 4.67237 5.32 4.96037 4.936C5.28037 4.552 5.66437 4.136 6.11237 3.688C6.56037 3.208 7.02437 2.76 7.50437 2.344C7.98437 1.896 8.38437 1.576 8.70437 1.384C9.37637 0.935999 10.0644 0.664 10.7684 0.568001C11.5044 0.472 12.1284 0.632 12.6404 1.048C12.7364 1.144 12.8964 1.304 13.1204 1.528C13.3444 1.752 13.6004 2.008 13.8884 2.296C14.2084 2.552 14.5284 2.824 14.8484 3.112L16.6244 4.696L15.7604 7.096C15.3444 8.376 15.2324 9.496 15.4244 10.456C15.6484 11.416 15.9684 12.248 16.3844 12.952C16.5444 13.304 16.8644 13.64 17.3444 13.96C17.8564 14.28 18.3364 14.472 18.7844 14.536C19.0404 14.568 19.2804 14.664 19.5044 14.824C19.7284 14.984 19.8404 15.24 19.8404 15.592C19.8404 15.912 19.7764 16.168 19.6484 16.36C19.5204 16.552 19.2964 16.68 18.9764 16.744C17.9204 16.872 16.9284 16.616 16.0004 15.976C15.1044 15.336 14.2724 14.28 13.5044 12.808C13.3764 12.616 13.2004 12.264 12.9764 11.752C12.7844 11.208 12.6724 10.856 12.6404 10.696C12.5124 10.856 12.2724 11.16 11.9204 11.608C11.5684 12.024 11.2964 12.328 11.1044 12.52C8.83237 14.824 6.86437 16.376 5.20037 17.176C3.56837 17.944 2.20837 17.976 1.12037 17.272ZM2.84837 14.584C2.84837 14.808 3.18437 14.808 3.85637 14.584C4.56037 14.328 5.31237 13.88 6.11237 13.24C7.20037 12.312 8.28837 11.288 9.37637 10.168C10.4964 9.048 11.3924 8.008 12.0644 7.048L13.1204 5.32C12.8004 4.584 12.4484 4.088 12.0644 3.832C11.7124 3.544 11.4084 3.4 11.1524 3.4C10.7364 3.4 10.1124 3.784 9.28037 4.552C8.48037 5.32 7.61637 6.344 6.68837 7.624C5.76037 8.904 4.88037 10.312 4.04837 11.848C3.72837 12.488 3.44037 13.112 3.18437 13.72C2.96037 14.296 2.84837 14.584 2.84837 14.584Z" fill="#2C1A3C"/>
</svg>
