<svg width="9" height="25" viewBox="0 0 9 25" fill="none" xmlns="http://www.w3.org/2000/svg">
<path d="M2.13751 24.512C1.65751 24.448 1.24151 24.112 0.889507 23.504C0.569507 22.864 0.377507 22.288 0.313507 21.776C0.345507 21.52 0.377508 21.152 0.409508 20.672C0.473508 20.192 0.537509 19.696 0.601509 19.184C0.729509 18.576 0.905509 17.84 1.12951 16.976C1.35351 16.08 1.57751 15.184 1.80151 14.288C2.05751 13.392 2.28151 12.624 2.47351 11.984C2.66551 11.344 2.79351 10.96 2.85751 10.832C3.01751 10.576 3.27351 10.512 3.62551 10.64C3.97751 10.768 4.26551 10.96 4.48951 11.216C4.68151 11.472 4.79351 11.776 4.82551 12.128C4.88951 12.48 4.84151 12.992 4.68151 13.664C4.55351 14.336 4.29751 15.328 3.91351 16.64C3.56151 17.92 3.28951 18.96 3.09751 19.76C2.93751 20.528 2.87351 21.344 2.90551 22.208C2.77751 23.296 2.68151 23.968 2.61751 24.224C2.55351 24.448 2.39351 24.544 2.13751 24.512ZM7.65751 5.35999C7.52951 5.45599 7.40151 5.50399 7.27351 5.50399C7.17751 5.47199 7.00151 5.37599 6.74551 5.21599C6.52151 5.18399 6.23351 5.03999 5.88151 4.78399C5.56151 4.49599 5.27351 4.20799 5.01751 3.91999C4.79351 3.59999 4.68151 3.40799 4.68151 3.34399C4.64951 3.02399 4.66551 2.62399 4.72951 2.14399C4.82551 1.63199 5.00151 1.18399 5.25751 0.799992C5.51351 0.383991 5.88151 0.15999 6.36151 0.127991C6.48951 0.127991 6.60151 0.143991 6.69751 0.175991C6.79351 0.207993 7.08151 0.319992 7.56151 0.511992C7.81751 0.991991 8.07351 1.53599 8.32951 2.14399C8.58551 2.71999 8.69751 3.29599 8.66551 3.87199C8.63351 4.41599 8.29751 4.91199 7.65751 5.35999Z" fill="#2C1A3C"/>
</svg>
