<svg width="30" height="35" viewBox="0 0 30 35" fill="none" xmlns="http://www.w3.org/2000/svg">
<path d="M1.608 33.776C1.192 33.52 0.968003 33.264 0.936003 33.008C0.904003 32.784 0.984003 32.336 1.176 31.664C1.144 31.248 1.16 30.864 1.224 30.512C1.32 30.16 1.384 29.92 1.416 29.792C1.576 29.792 1.672 29.696 1.704 29.504C1.736 29.312 1.752 29.152 1.752 29.024C1.752 28.768 1.848 28.336 2.04 27.728C2.264 27.12 2.456 26.496 2.616 25.856C2.872 25.216 3.112 24.624 3.336 24.08C3.592 23.504 3.72 23.152 3.72 23.024C3.72 22.768 3.784 22.512 3.912 22.256C4.04 21.968 4.184 21.696 4.344 21.44C4.504 21.056 4.616 20.64 4.68 20.192C4.776 19.712 4.824 19.344 4.824 19.088C5.016 18.672 5.224 18.224 5.448 17.744C5.672 17.264 5.848 16.768 5.976 16.256C6.168 15.712 6.44 14.928 6.792 13.904C7.176 12.848 7.576 11.776 7.992 10.688C8.28 10.08 8.568 9.44 8.856 8.768C9.144 8.096 9.4 7.52 9.624 7.04C9.848 6.56 10.008 6.32 10.104 6.32C10.104 6.32 10.104 6.272 10.104 6.176C10.104 6.048 10.104 5.92 10.104 5.792C10.104 5.632 10.232 5.328 10.488 4.88C10.744 4.4 10.984 3.904 11.208 3.392C11.528 2.912 11.752 2.464 11.88 2.048C12.008 1.6 12.072 1.376 12.072 1.376C12.072 1.376 12.12 1.28 12.216 1.088C12.344 0.896001 12.472 0.736001 12.6 0.608001C13.016 0.320001 13.4 0.208001 13.752 0.272002C14.136 0.336001 14.456 0.640001 14.712 1.184C14.968 1.696 15.08 2.128 15.048 2.48C15.016 2.8 14.872 3.152 14.616 3.536C14.36 4.112 14.024 4.848 13.608 5.744C13.192 6.608 12.744 7.552 12.264 8.576C11.816 9.568 11.384 10.528 10.968 11.456C10.584 12.352 10.264 13.136 10.008 13.808C9.784 14.448 9.672 14.848 9.672 15.008L7.704 19.856C7.704 19.92 7.64 20.08 7.512 20.336C7.416 20.592 7.272 20.976 7.08 21.488C6.92 22 6.712 22.672 6.456 23.504C6.2 24.336 5.896 25.344 5.544 26.528C4.904 28.576 4.408 30.176 4.056 31.328C3.704 32.448 3.416 33.216 3.192 33.632C3 34.08 2.792 34.304 2.568 34.304C2.44 34.304 2.296 34.24 2.136 34.112C2.008 34.016 1.832 33.904 1.608 33.776ZM18.552 34.16C18.264 34.192 17.864 34.048 17.352 33.728C16.872 33.44 16.344 33.072 15.768 32.624C15.224 32.176 14.696 31.712 14.184 31.232C13.704 30.752 13.32 30.336 13.032 29.984C12.52 29.248 11.88 28.288 11.112 27.104C10.344 25.888 9.768 24.592 9.384 23.216C9.16 22.192 8.936 21.392 8.712 20.816C8.488 20.208 8.344 19.712 8.28 19.328L8.328 15.968L10.776 16.736C10.936 18.464 11.176 19.904 11.496 21.056C11.848 22.176 12.264 23.168 12.744 24.032C13.128 24.864 13.56 25.696 14.04 26.528C14.52 27.328 15.032 28 15.576 28.544C16.312 29.344 16.968 29.936 17.544 30.32C18.12 30.704 18.552 30.896 18.84 30.896C19 30.928 19.224 31.04 19.512 31.232C19.832 31.424 20.12 31.632 20.376 31.856C20.664 32.048 20.824 32.24 20.856 32.432C20.888 32.528 20.904 32.672 20.904 32.864C20.904 33.088 20.872 33.28 20.808 33.44C20.776 33.632 20.728 33.776 20.664 33.872C20.568 34.096 20.392 34.288 20.136 34.448C19.912 34.64 19.384 34.544 18.552 34.16ZM7.8 16.352L11.304 13.808C11.4 13.712 11.736 13.392 12.312 12.848C12.92 12.304 13.912 11.52 15.288 10.496L21.192 5.696C21.992 5.28 22.808 4.752 23.64 4.112C24.504 3.472 25.16 3.008 25.608 2.72C26.152 2.336 26.632 2 27.048 1.712C27.464 1.424 27.736 1.296 27.864 1.328C28.12 1.2 28.376 1.248 28.632 1.472C28.92 1.664 29.144 1.936 29.304 2.288C29.496 2.608 29.576 2.896 29.544 3.152C29.608 3.472 29.544 3.744 29.352 3.968C29.16 4.192 28.696 4.512 27.96 4.928C27.352 5.216 26.808 5.504 26.328 5.792C25.88 6.08 25.608 6.32 25.512 6.512C25.512 6.512 25.208 6.752 24.6 7.232C24.024 7.68 23.272 8.224 22.344 8.864C21.064 9.696 19.96 10.48 19.032 11.216C18.136 11.952 17.56 12.512 17.304 12.896C17.176 12.896 17.048 12.944 16.92 13.04C16.824 13.136 16.712 13.168 16.584 13.136C16.584 13.136 16.456 13.216 16.2 13.376C15.976 13.536 15.8 13.696 15.672 13.856C15.608 14.016 15.464 14.24 15.24 14.528C15.048 14.816 14.792 14.944 14.472 14.912C14.248 15.04 13.848 15.312 13.272 15.728C12.696 16.112 12.088 16.544 11.448 17.024C10.84 17.504 10.312 17.936 9.864 18.32C9.416 18.704 9.176 18.928 9.144 18.992L7.8 16.352Z" fill="#2C1A3C"/>
</svg>
