<svg width="15" height="27" viewBox="0 0 15 27" fill="none" xmlns="http://www.w3.org/2000/svg">
<path d="M3.48263 26.664C3.13063 26.6 2.76263 26.424 2.37863 26.136C2.02663 25.816 1.70663 25.464 1.41863 25.08C1.16263 24.664 0.986629 24.296 0.890629 23.976C0.890629 23.912 0.842628 23.832 0.746628 23.736C0.682628 23.64 0.650631 23.592 0.650631 23.592C0.522631 23.496 0.442629 23.08 0.410629 22.344C0.410629 21.576 0.45863 20.728 0.55463 19.8C0.65063 18.872 0.762629 18.136 0.890629 17.592C1.05063 17.08 1.29063 16.392 1.61063 15.528C1.93063 14.632 2.20263 13.832 2.42663 13.128L3.72263 10.344L1.80263 9.81601C1.57863 9.75201 1.38663 9.62401 1.22663 9.43201C1.09863 9.24001 1.03463 9.08001 1.03463 8.95201C1.03463 8.69601 1.17863 8.39201 1.46663 8.04001C1.75463 7.65601 1.96263 7.46401 2.09063 7.46401C2.25063 7.49601 2.53863 7.51201 2.95463 7.51201C3.40263 7.51201 3.83463 7.49601 4.25063 7.46401C4.66663 7.43201 4.92263 7.40001 5.01863 7.36801C5.14663 7.30401 5.27463 7.22401 5.40263 7.12801C5.53063 7.00001 5.62663 6.82401 5.69063 6.60001C5.85063 6.24801 5.99463 5.92801 6.12263 5.64001C6.25063 5.32001 6.42663 4.96801 6.65063 4.58401C6.87463 4.16801 7.05063 3.81601 7.17863 3.52801C7.33863 3.24001 7.57863 2.84001 7.89863 2.32801C8.05863 2.10401 8.23463 1.83201 8.42663 1.51201C8.61863 1.19201 8.85863 0.920009 9.14663 0.696008C9.43463 0.440007 9.72263 0.328008 10.0106 0.360009C10.3306 0.360009 10.7306 0.568007 11.2106 0.984006C11.4666 1.30401 11.6106 1.54401 11.6426 1.70401C11.6746 1.86401 11.5466 2.16801 11.2586 2.61601C11.0026 3.16001 10.6986 3.70401 10.3466 4.24801C10.0266 4.79201 9.72263 5.33601 9.43463 5.88001C8.92263 6.58401 8.82663 6.98401 9.14663 7.08001C9.46663 7.17601 10.3626 7.11201 11.8346 6.88801C12.7626 6.72801 13.4346 6.77601 13.8506 7.03201C14.2666 7.25601 14.5066 7.64001 14.5706 8.18401C14.6666 8.95201 14.5866 9.41601 14.3306 9.57601C14.0746 9.73601 13.3386 9.81601 12.1226 9.81601C11.3546 9.94401 10.6986 10.024 10.1546 10.056C9.61063 10.056 9.21063 10.056 8.95463 10.056C8.53863 10.088 8.26663 10.104 8.13863 10.104C8.01063 10.104 7.81863 10.136 7.56263 10.2C7.30663 10.264 7.11463 10.376 6.98663 10.536C6.89063 10.664 6.77863 10.856 6.65063 11.112C6.52263 11.24 6.33063 11.576 6.07463 12.12C5.81863 12.664 5.49863 13.256 5.11463 13.896C4.66663 15.24 4.28263 16.584 3.96263 17.928C3.64263 19.24 3.38663 20.52 3.19463 21.768C3.06663 22.568 3.08263 23.128 3.24263 23.448C3.40263 23.736 3.81863 23.912 4.49063 23.976C4.84263 24.008 5.40263 24.008 6.17063 23.976C6.97063 23.912 7.59463 23.816 8.04263 23.688C8.39463 23.528 8.76263 23.368 9.14663 23.208C9.53063 23.016 9.88263 22.824 10.2026 22.632C10.4906 22.472 10.7786 22.312 11.0666 22.152C11.3546 21.96 11.4986 21.864 11.4986 21.864C11.6586 21.608 11.8346 21.528 12.0266 21.624C12.2186 21.72 12.3786 21.96 12.5066 22.344C12.5066 22.728 12.4266 23.128 12.2666 23.544C12.1066 23.96 11.5146 24.456 10.4906 25.032C9.05063 25.928 7.72263 26.472 6.50663 26.664C5.32263 26.824 4.31463 26.824 3.48263 26.664Z" fill="#2C1A3C"/>
</svg>
