<svg width="16" height="18" viewBox="0 0 16 18" fill="none" xmlns="http://www.w3.org/2000/svg">
<path d="M2.97325 17.752C2.39725 17.336 1.91725 16.888 1.53325 16.408C1.14925 15.896 0.92525 15.224 0.86125 14.392C0.76525 13.848 0.957246 13.16 1.43725 12.328C1.94925 11.464 2.66925 10.568 3.59725 9.64C4.52525 8.68 5.54925 7.784 6.66925 6.952C8.01325 6.088 8.97325 5.448 9.54925 5.032C10.1252 4.616 10.4612 4.312 10.5572 4.12C10.6852 3.928 10.6852 3.752 10.5572 3.592C10.4612 3.464 10.2212 3.4 9.83725 3.4C9.48525 3.368 9.00525 3.32 8.39725 3.256C8.01325 3.288 7.66125 3.304 7.34125 3.304C7.02125 3.304 6.63725 3.32 6.18925 3.352C5.77325 3.384 5.18125 3.48 4.41325 3.64C3.83725 3.672 3.43725 3.672 3.21325 3.64C3.02125 3.576 2.81325 3.432 2.58925 3.208C2.42925 2.92 2.28525 2.664 2.15725 2.44C2.06125 2.216 2.09325 2.056 2.25325 1.96C2.31725 1.608 2.50924 1.368 2.82924 1.24C3.18124 1.112 3.94925 0.984003 5.13325 0.856003C5.38925 0.888003 5.88525 0.904003 6.62125 0.904003C7.38925 0.904003 8.23725 0.968003 9.16525 1.096C10.5093 1.256 11.5172 1.416 12.1892 1.576C12.8612 1.704 13.3253 1.88 13.5813 2.104C13.8693 2.328 14.0612 2.648 14.1572 3.064C14.3492 3.544 14.3973 3.96 14.3013 4.312C14.2373 4.664 13.9172 5.064 13.3412 5.512C12.7972 5.96 11.8852 6.584 10.6052 7.384C9.74125 7.992 8.92525 8.616 8.15725 9.256C7.42125 9.864 6.76525 10.456 6.18925 11.032C5.61325 11.608 5.10125 12.152 4.65325 12.664C3.94925 13.528 3.51725 14.088 3.35725 14.344C3.22925 14.6 3.40525 14.808 3.88525 14.968C4.01325 15.096 4.23725 15.176 4.55725 15.208C4.87725 15.208 5.19725 15.192 5.51725 15.16C5.77325 15.16 6.15725 15.16 6.66925 15.16C7.18125 15.128 7.48525 15.144 7.58125 15.208C7.83725 15.336 8.17325 15.336 8.58925 15.208C9.03725 15.08 9.50125 14.952 9.98125 14.824C10.1732 14.792 10.4772 14.76 10.8932 14.728C11.3092 14.696 11.7252 14.664 12.1412 14.632C12.5572 14.568 12.8613 14.504 13.0533 14.44C13.4053 14.312 13.8213 14.248 14.3013 14.248C14.8133 14.216 15.1333 14.2 15.2613 14.2C15.4533 14.36 15.5332 14.584 15.5012 14.872C15.4692 15.16 15.3092 15.448 15.0212 15.736C14.7332 16.024 14.3012 16.232 13.7252 16.36C12.7972 16.68 12.1572 16.904 11.8053 17.032C11.4852 17.128 11.1973 17.16 10.9413 17.128C10.3333 17.288 9.64525 17.416 8.87725 17.512C8.10925 17.576 7.34125 17.624 6.57325 17.656C5.80525 17.688 5.10125 17.72 4.46125 17.752C3.82125 17.752 3.32525 17.752 2.97325 17.752Z" fill="#2C1A3C"/>
</svg>
