<svg width="137" height="32" viewBox="-2 -2 141 36" fill="none" xmlns="http://www.w3.org/2000/svg">
  <g transform="translate(0,0) scale(0.9143)">
    <path d="M1.608 33.776C1.192 33.52 0.968003 33.264 0.936003 33.008C0.904003 32.784 0.984003 32.336 1.176 31.664C1.144 31.248 1.16 30.864 1.224 30.512C1.32 30.16 1.384 29.92 1.416 29.792C1.576 29.792 1.672 29.696 1.704 29.504C1.736 29.312 1.752 29.152 1.752 29.024C1.752 28.768 1.848 28.336 2.04 27.728C2.264 27.12 2.456 26.496 2.616 25.856C2.872 25.216 3.112 24.624 3.336 24.08C3.592 23.504 3.72 23.152 3.72 23.024C3.72 22.768 3.784 22.512 3.912 22.256C4.04 21.968 4.184 21.696 4.344 21.44C4.504 21.056 4.616 20.64 4.68 20.192C4.776 19.712 4.824 19.344 4.824 19.088C5.016 18.672 5.224 18.224 5.448 17.744C5.672 17.264 5.848 16.768 5.976 16.256C6.168 15.712 6.44 14.928 6.792 13.904C7.176 12.848 7.576 11.776 7.992 10.688C8.28 10.08 8.568 9.44 8.856 8.768C9.144 8.096 9.4 7.52 9.624 7.04C9.848 6.56 10.008 6.32 10.104 6.32C10.104 6.32 10.104 6.272 10.104 6.176C10.104 6.048 10.104 5.92 10.104 5.792C10.104 5.632 10.232 5.328 10.488 4.88C10.744 4.4 10.984 3.904 11.208 3.392C11.528 2.912 11.752 2.464 11.88 2.048C12.008 1.6 12.072 1.376 12.072 1.376C12.072 1.376 12.12 1.28 12.216 1.088C12.344 0.896001 12.472 0.736001 12.6 0.608001C13.016 0.320001 13.4 0.208001 13.752 0.272002C14.136 0.336001 14.456 0.640001 14.712 1.184C14.968 1.696 15.08 2.128 15.048 2.48C15.016 2.8 14.872 3.152 14.616 3.536C14.36 4.112 14.024 4.848 13.608 5.744C13.192 6.608 12.744 7.552 12.264 8.576C11.816 9.568 11.384 10.528 10.968 11.456C10.584 12.352 10.264 13.136 10.008 13.808C9.784 14.448 9.672 14.848 9.672 15.008L7.704 19.856C7.704 19.92 7.64 20.08 7.512 20.336C7.416 20.592 7.272 20.976 7.08 21.488C6.92 22 6.712 22.672 6.456 23.504C6.2 24.336 5.896 25.344 5.544 26.528C4.904 28.576 4.408 30.176 4.056 31.328C3.704 32.448 3.416 33.216 3.192 33.632C3 34.08 2.792 34.304 2.568 34.304C2.44 34.304 2.296 34.24 2.136 34.112C2.008 34.016 1.832 33.904 1.608 33.776ZM18.552 34.16C18.264 34.192 17.864 34.048 17.352 33.728C16.872 33.44 16.344 33.072 15.768 32.624C15.224 32.176 14.696 31.712 14.184 31.232C13.704 30.752 13.32 30.336 13.032 29.984C12.52 29.248 11.88 28.288 11.112 27.104C10.344 25.888 9.768 24.592 9.384 23.216C9.16 22.192 8.936 21.392 8.712 20.816C8.488 20.208 8.344 19.712 8.28 19.328L8.328 15.968L10.776 16.736C10.936 18.464 11.176 19.904 11.496 21.056C11.848 22.176 12.264 23.168 12.744 24.032C13.128 24.864 13.56 25.696 14.04 26.528C14.52 27.328 15.032 28 15.576 28.544C16.312 29.344 16.968 29.936 17.544 30.32C18.12 30.704 18.552 30.896 18.84 30.896C19 30.928 19.224 31.04 19.512 31.232C19.832 31.424 20.12 31.632 20.376 31.856C20.664 32.048 20.824 32.24 20.856 32.432C20.888 32.528 20.904 32.672 20.904 32.864C20.904 33.088 20.872 33.28 20.808 33.44C20.776 33.632 20.728 33.776 20.664 33.872C20.568 34.096 20.392 34.288 20.136 34.448C19.912 34.64 19.384 34.544 18.552 34.16ZM7.8 16.352L11.304 13.808C11.4 13.712 11.736 13.392 12.312 12.848C12.92 12.304 13.912 11.52 15.288 10.496L21.192 5.696C21.992 5.28 22.808 4.752 23.64 4.112C24.504 3.472 25.16 3.008 25.608 2.72C26.152 2.336 26.632 2 27.048 1.712C27.464 1.424 27.736 1.296 27.864 1.328C28.12 1.2 28.376 1.248 28.632 1.472C28.92 1.664 29.144 1.936 29.304 2.288C29.496 2.608 29.576 2.896 29.544 3.152C29.608 3.472 29.544 3.744 29.352 3.968C29.16 4.192 28.696 4.512 27.96 4.928C27.352 5.216 26.808 5.504 26.328 5.792C25.88 6.08 25.608 6.32 25.512 6.512C25.512 6.512 25.208 6.752 24.6 7.232C24.024 7.68 23.272 8.224 22.344 8.864C21.064 9.696 19.96 10.48 19.032 11.216C18.136 11.952 17.56 12.512 17.304 12.896C17.176 12.896 17.048 12.944 16.92 13.04C16.824 13.136 16.712 13.168 16.584 13.136C16.584 13.136 16.456 13.216 16.2 13.376C15.976 13.536 15.8 13.696 15.672 13.856C15.608 14.016 15.464 14.24 15.24 14.528C15.048 14.816 14.792 14.944 14.472 14.912C14.248 15.04 13.848 15.312 13.272 15.728C12.696 16.112 12.088 16.544 11.448 17.024C10.84 17.504 10.312 17.936 9.864 18.32C9.416 18.704 9.176 18.928 9.144 18.992L7.8 16.352Z" fill="#b042c9"/>
  </g>
  <g transform="translate(31.43,0) scale(1.7778)">
    <path d="M1.12037 17.272C0.992371 17.016 0.832372 16.824 0.640371 16.696C0.448371 16.536 0.352371 16.392 0.352371 16.264C0.352371 16.136 0.336371 16.008 0.304371 15.88C0.304371 15.72 0.240372 15.576 0.112371 15.448C-0.0476286 15.256 -0.0316283 14.824 0.160372 14.152C0.352372 13.448 0.672371 12.6 1.12037 11.608C1.56837 10.584 2.09637 9.512 2.70437 8.392C2.96037 8.136 3.21637 7.8 3.47237 7.384C3.72837 6.968 3.92037 6.696 4.04837 6.568C4.04837 6.44 4.09637 6.328 4.19237 6.232C4.28837 6.104 4.40037 6.04 4.52837 6.04V5.752C4.52837 5.592 4.67237 5.32 4.96037 4.936C5.28037 4.552 5.66437 4.136 6.11237 3.688C6.56037 3.208 7.02437 2.76 7.50437 2.344C7.98437 1.896 8.38437 1.576 8.70437 1.384C9.37637 0.935999 10.0644 0.664 10.7684 0.568001C11.5044 0.472 12.1284 0.632 12.6404 1.048C12.7364 1.144 12.8964 1.304 13.1204 1.528C13.3444 1.752 13.6004 2.008 13.8884 2.296C14.2084 2.552 14.5284 2.824 14.8484 3.112L16.6244 4.696L15.7604 7.096C15.3444 8.376 15.2324 9.496 15.4244 10.456C15.6484 11.416 15.9684 12.248 16.3844 12.952C16.5444 13.304 16.8644 13.64 17.3444 13.96C17.8564 14.28 18.3364 14.472 18.7844 14.536C19.0404 14.568 19.2804 14.664 19.5044 14.824C19.7284 14.984 19.8404 15.24 19.8404 15.592C19.8404 15.912 19.7764 16.168 19.6484 16.36C19.5204 16.552 19.2964 16.68 18.9764 16.744C17.9204 16.872 16.9284 16.616 16.0004 15.976C15.1044 15.336 14.2724 14.28 13.5044 12.808C13.3764 12.616 13.2004 12.264 12.9764 11.752C12.7844 11.208 12.6724 10.856 12.6404 10.696C12.5124 10.856 12.2724 11.16 11.9204 11.608C11.5684 12.024 11.2964 12.328 11.1044 12.52C8.83237 14.824 6.86437 16.376 5.20037 17.176C3.56837 17.944 2.20837 17.976 1.12037 17.272ZM2.84837 14.584C2.84837 14.808 3.18437 14.808 3.85637 14.584C4.56037 14.328 5.31237 13.88 6.11237 13.24C7.20037 12.312 8.28837 11.288 9.37637 10.168C10.4964 9.048 11.3924 8.008 12.0644 7.048L13.1204 5.32C12.8004 4.584 12.4484 4.088 12.0644 3.832C11.7124 3.544 11.4084 3.4 11.1524 3.4C10.7364 3.4 10.1124 3.784 9.28037 4.552C8.48037 5.32 7.61637 6.344 6.68837 7.624C5.76037 8.904 4.88037 10.312 4.04837 11.848C3.72837 12.488 3.44037 13.112 3.18437 13.72C2.96037 14.296 2.84837 14.584 2.84837 14.584Z" fill="#b042c9"/>
  </g>
  <g transform="translate(71.0,0) scale(1.28)">
    <path d="M2.13751 24.512C1.65751 24.448 1.24151 24.112 0.889507 23.504C0.569507 22.864 0.377507 22.288 0.313507 21.776C0.345507 21.52 0.377508 21.152 0.409508 20.672C0.473508 20.192 0.537509 19.696 0.601509 19.184C0.729509 18.576 0.905509 17.84 1.12951 16.976C1.35351 16.08 1.57751 15.184 1.80151 14.288C2.05751 13.392 2.28151 12.624 2.47351 11.984C2.66551 11.344 2.79351 10.96 2.85751 10.832C3.01751 10.576 3.27351 10.512 3.62551 10.64C3.97751 10.768 4.26551 10.96 4.48951 11.216C4.68151 11.472 4.79351 11.776 4.82551 12.128C4.88951 12.48 4.84151 12.992 4.68151 13.664C4.55351 14.336 4.29751 15.328 3.91351 16.64C3.56151 17.92 3.28951 18.96 3.09751 19.76C2.93751 20.528 2.87351 21.344 2.90551 22.208C2.77751 23.296 2.68151 23.968 2.61751 24.224C2.55351 24.448 2.39351 24.544 2.13751 24.512ZM7.65751 5.35999C7.52951 5.45599 7.40151 5.50399 7.27351 5.50399C7.17751 5.47199 7.00151 5.37599 6.74551 5.21599C6.52151 5.18399 6.23351 5.03999 5.88151 4.78399C5.56151 4.49599 5.27351 4.20799 5.01751 3.91999C4.79351 3.59999 4.68151 3.40799 4.68151 3.34399C4.64951 3.02399 4.66551 2.62399 4.72951 2.14399C4.82551 1.63199 5.00151 1.18399 5.25751 0.799992C5.51351 0.383991 5.88151 0.15999 6.36151 0.127991C6.48951 0.127991 6.60151 0.143991 6.69751 0.175991C6.79351 0.207993 7.08151 0.319992 7.56151 0.511992C7.81751 0.991991 8.07351 1.53599 8.32951 2.14399C8.58551 2.71999 8.69751 3.29599 8.66551 3.87199C8.63351 4.41599 8.29751 4.91199 7.65751 5.35999Z" fill="#b042c9"/>
  </g>
  <g transform="translate(86.52,0) scale(1.1852)">
    <path d="M3.48263 26.664C3.13063 26.6 2.76263 26.424 2.37863 26.136C2.02663 25.816 1.70663 25.464 1.41863 25.08C1.16263 24.664 0.986629 24.296 0.890629 23.976C0.890629 23.912 0.842628 23.832 0.746628 23.736C0.682628 23.64 0.650631 23.592 0.650631 23.592C0.522631 23.496 0.442629 23.08 0.410629 22.344C0.410629 21.576 0.45863 20.728 0.55463 19.8C0.65063 18.872 0.762629 18.136 0.890629 17.592C1.05063 17.08 1.29063 16.392 1.61063 15.528C1.93063 14.632 2.20263 13.832 2.42663 13.128L3.72263 10.344L1.80263 9.81601C1.57863 9.75201 1.38663 9.62401 1.22663 9.43201C1.09863 9.24001 1.03463 9.08001 1.03463 8.95201C1.03463 8.69601 1.17863 8.39201 1.46663 8.04001C1.75463 7.65601 1.96263 7.46401 2.09063 7.46401C2.25063 7.49601 2.53863 7.51201 2.95463 7.51201C3.40263 7.51201 3.83463 7.49601 4.25063 7.46401C4.66663 7.43201 4.92263 7.40001 5.01863 7.36801C5.14663 7.30401 5.27463 7.22401 5.40263 7.12801C5.53063 7.00001 5.62663 6.82401 5.69063 6.60001C5.85063 6.24801 5.99463 5.92801 6.12263 5.64001C6.25063 5.32001 6.42663 4.96801 6.65063 4.58401C6.87463 4.16801 7.05063 3.81601 7.17863 3.52801C7.33863 3.24001 7.57863 2.84001 7.89863 2.32801C8.05863 2.10401 8.23463 1.83201 8.42663 1.51201C8.61863 1.19201 8.85863 0.920009 9.14663 0.696008C9.43463 0.440007 9.72263 0.328008 10.0106 0.360009C10.3306 0.360009 10.7306 0.568007 11.2106 0.984006C11.4666 1.30401 11.6106 1.54401 11.6426 1.70401C11.6746 1.86401 11.5466 2.16801 11.2586 2.61601C11.0026 3.16001 10.6986 3.70401 10.3466 4.24801C10.0266 4.79201 9.72263 5.33601 9.43463 5.88001C8.92263 6.58401 8.82663 6.98401 9.14663 7.08001C9.46663 7.17601 10.3626 7.11201 11.8346 6.88801C12.7626 6.72801 13.4346 6.77601 13.8506 7.03201C14.2666 7.25601 14.5066 7.64001 14.5706 8.18401C14.6666 8.95201 14.5866 9.41601 14.3306 9.57601C14.0746 9.73601 13.3386 9.81601 12.1226 9.81601C11.3546 9.94401 10.6986 10.024 10.1546 10.056C9.61063 10.056 9.21063 10.056 8.95463 10.056C8.53863 10.088 8.26663 10.104 8.13863 10.104C8.01063 10.104 7.81863 10.136 7.56263 10.2C7.30663 10.264 7.11463 10.376 6.98663 10.536C6.89063 10.664 6.77863 10.856 6.65063 11.112C6.52263 11.24 6.33063 11.576 6.07463 12.12C5.81863 12.664 5.49863 13.256 5.11463 13.896C4.66663 15.24 4.28263 16.584 3.96263 17.928C3.64263 19.24 3.38663 20.52 3.19463 21.768C3.06663 22.568 3.08263 23.128 3.24263 23.448C3.40263 23.736 3.81863 23.912 4.49063 23.976C4.84263 24.008 5.40263 24.008 6.17063 23.976C6.97063 23.912 7.59463 23.816 8.04263 23.688C8.39463 23.528 8.76263 23.368 9.14663 23.208C9.53063 23.016 9.88263 22.824 10.2026 22.632C10.4906 22.472 10.7786 22.312 11.0666 22.152C11.3546 21.96 11.4986 21.864 11.4986 21.864C11.6586 21.608 11.8346 21.528 12.0266 21.624C12.2186 21.72 12.3786 21.96 12.5066 22.344C12.5066 22.728 12.4266 23.128 12.2666 23.544C12.1066 23.96 11.5146 24.456 10.4906 25.032C9.05063 25.928 7.72263 26.472 6.50663 26.664C5.32263 26.824 4.31463 26.824 3.48263 26.664Z" fill="#b042c9"/>
  </g>
  <g transform="translate(108.3,0) scale(1.7778)">
    <path d="M2.97325 17.752C2.39725 17.336 1.91725 16.888 1.53325 16.408C1.14925 15.896 0.92525 15.224 0.86125 14.392C0.76525 13.848 0.957246 13.16 1.43725 12.328C1.94925 11.464 2.66925 10.568 3.59725 9.64C4.52525 8.68 5.54925 7.784 6.66925 6.952C8.01325 6.088 8.97325 5.448 9.54925 5.032C10.1252 4.616 10.4612 4.312 10.5572 4.12C10.6852 3.928 10.6852 3.752 10.5572 3.592C10.4612 3.464 10.2212 3.4 9.83725 3.4C9.48525 3.368 9.00525 3.32 8.39725 3.256C8.01325 3.288 7.66125 3.304 7.34125 3.304C7.02125 3.304 6.63725 3.32 6.18925 3.352C5.77325 3.384 5.18125 3.48 4.41325 3.64C3.83725 3.672 3.43725 3.672 3.21325 3.64C3.02125 3.576 2.81325 3.432 2.58925 3.208C2.42925 2.92 2.28525 2.664 2.15725 2.44C2.06125 2.216 2.09325 2.056 2.25325 1.96C2.31725 1.608 2.50924 1.368 2.82924 1.24C3.18124 1.112 3.94925 0.984003 5.13325 0.856003C5.38925 0.888003 5.88525 0.904003 6.62125 0.904003C7.38925 0.904003 8.23725 0.968003 9.16525 1.096C10.5093 1.256 11.5172 1.416 12.1892 1.576C12.8612 1.704 13.3253 1.88 13.5813 2.104C13.8693 2.328 14.0612 2.648 14.1572 3.064C14.3492 3.544 14.3973 3.96 14.3013 4.312C14.2373 4.664 13.9172 5.064 13.3412 5.512C12.7972 5.96 11.8852 6.584 10.6052 7.384C9.74125 7.992 8.92525 8.616 8.15725 9.256C7.42125 9.864 6.76525 10.456 6.18925 11.032C5.61325 11.608 5.10125 12.152 4.65325 12.664C3.94925 13.528 3.51725 14.088 3.35725 14.344C3.22925 14.6 3.40525 14.808 3.88525 14.968C4.01325 15.096 4.23725 15.176 4.55725 15.208C4.87725 15.208 5.19725 15.192 5.51725 15.16C5.77325 15.16 6.15725 15.16 6.66925 15.16C7.18125 15.128 7.48525 15.144 7.58125 15.208C7.83725 15.336 8.17325 15.336 8.58925 15.208C9.03725 15.08 9.50125 14.952 9.98125 14.824C10.1732 14.792 10.4772 14.76 10.8932 14.728C11.3092 14.696 11.7252 14.664 12.1412 14.632C12.5572 14.568 12.8613 14.504 13.0533 14.44C13.4053 14.312 13.8213 14.248 14.3013 14.248C14.8133 14.216 15.1333 14.2 15.2613 14.2C15.4533 14.36 15.5332 14.584 15.5012 14.872C15.4692 15.16 15.3092 15.448 15.0212 15.736C14.7332 16.024 14.3012 16.232 13.7252 16.36C12.7972 16.68 12.1572 16.904 11.8053 17.032C11.4852 17.128 11.1973 17.16 10.9413 17.128C10.3333 17.288 9.64525 17.416 8.87725 17.512C8.10925 17.576 7.34125 17.624 6.57325 17.656C5.80525 17.688 5.10125 17.72 4.46125 17.752C3.82125 17.752 3.32525 17.752 2.97325 17.752Z" fill="#b042c9"/>
  </g>
</svg>
